<?xml version="1.0" standalone="no"?>
<!DOCTYPE svg PUBLIC "-//W3C//DTD SVG 20010904//EN"
 "http://www.w3.org/TR/2001/REC-SVG-20010904/DTD/svg10.dtd">
<svg version="1.0" xmlns="http://www.w3.org/2000/svg"
 width="900" height="324" viewBox="0 0 900.000000 324.000000"
 preserveAspectRatio="xMidYMid meet">
<metadata>
Created by potrace 1.16, written by Peter Selinger 2001-2019
</metadata>
<g transform="translate(0.000000,324.000000) scale(0.100000,-0.100000)"
fill="#3ebf8c" stroke="none">
<path d="M1840 2615 c0 -204 0 -205 22 -205 35 0 107 40 132 74 94 124 28 295
-126 330 l-28 6 0 -205z"/>
<path d="M3605 2783 c10 -56 42 -102 94 -134 79 -50 194 -36 258 33 26 27 53
88 53 118 0 19 -6 20 -206 20 l-206 0 7 -37z"/>
<path d="M853 2763 c7 -41 48 -97 96 -130 111 -75 277 -2 306 135 l7 32 -208
0 -207 0 6 -37z"/>
<path d="M4980 2791 c0 -6 -11 -11 -25 -11 -21 0 -25 -5 -25 -29 0 -27 -3 -30
-37 -33 l-38 -3 -3 -137 -3 -138 41 0 c39 0 40 -1 40 -35 l0 -35 65 0 c50 0
65 3 65 14 0 8 15 27 34 43 45 37 74 89 82 145 12 84 -57 191 -136 213 -14 3
-33 9 -42 11 -10 3 -18 1 -18 -5z"/>
<path d="M2140 2750 c0 -28 -3 -30 -35 -30 l-35 0 0 -140 0 -140 35 0 c32 0
35 -2 35 -31 0 -22 5 -32 20 -36 11 -3 20 -14 20 -24 0 -13 -9 -19 -37 -21
l-38 -3 -3 -137 -3 -138 41 0 c39 0 40 -1 40 -35 l0 -35 65 0 65 0 0 210 c0
129 4 210 10 210 5 0 25 16 45 35 23 23 35 30 35 20 0 -11 11 -15 40 -15 39 0
40 -1 40 -35 l0 -35 65 0 65 0 0 -778 c0 -428 3 -781 6 -785 3 -3 26 1 51 8
49 15 108 64 126 105 l11 25 4 -27 c3 -24 8 -28 37 -28 31 0 34 -3 37 -32 l3
-33 68 -3 67 -3 0 206 0 205 -35 0 -35 0 0 185 0 185 60 0 60 0 0 395 0 395
-70 0 -70 0 0 -30 c0 -28 -3 -30 -35 -30 l-35 0 0 -140 0 -140 35 0 c27 0 35
-4 35 -17 0 -10 3 -35 6 -55 l7 -38 -42 0 -41 0 0 -140 0 -140 40 0 c33 0 40
-3 40 -20 0 -18 -7 -20 -59 -20 l-60 0 -3 -32 c-4 -46 -36 -49 -88 -7 -36 29
-39 34 -23 42 70 37 107 108 101 193 -5 82 -38 133 -107 165 -28 13 -50 27
-51 30 0 4 12 10 28 14 107 26 164 172 111 283 -25 50 -85 99 -135 108 l-34 6
0 179 0 179 -70 0 -70 0 0 -30 c0 -28 -3 -30 -35 -30 -23 0 -38 -6 -42 -16 -5
-12 -13 -9 -42 20 -46 45 -77 56 -157 56 l-64 0 0 -30z m680 -1510 c0 -27 3
-30 30 -30 23 0 30 -4 30 -20 0 -16 -7 -20 -35 -20 l-35 0 -1 -47 c0 -42 -2
-45 -12 -28 -25 42 -96 103 -128 110 l-33 7 39 14 c21 7 45 20 54 28 8 9 32
16 53 16 36 0 38 -2 38 -30z"/>
<path d="M5270 2750 c0 -28 -2 -30 -40 -30 l-40 0 0 -139 0 -140 38 -3 c34 -3
37 -6 40 -35 3 -32 5 -33 48 -33 l44 0 0 -760 c0 -632 2 -760 14 -760 25 0 81
23 114 47 25 19 32 21 32 9 0 -12 11 -16 40 -16 39 0 40 -1 40 -35 l0 -35 65
0 65 0 0 205 c0 198 -1 205 -20 205 -19 0 -20 7 -20 185 0 117 4 185 10 185 6
0 10 75 10 205 0 198 -1 205 -20 205 -19 0 -20 7 -20 190 l0 190 -65 0 -65 0
0 -30 c0 -25 -4 -30 -24 -30 -13 0 -44 9 -70 20 l-46 21 0 204 0 205 -65 0
-65 0 0 -30z m270 -735 c0 -28 4 -35 20 -35 13 0 20 -7 20 -20 0 -17 -7 -20
-41 -20 -22 0 -54 8 -69 17 l-28 16 39 29 c21 15 39 33 39 38 0 6 5 10 10 10
6 0 10 -16 10 -35z m40 -375 c0 -11 -7 -20 -15 -20 -10 0 -15 -11 -15 -35 0
-29 -4 -35 -21 -35 -12 0 -37 10 -56 21 l-34 21 28 18 c15 9 34 24 42 33 7 10
26 17 42 17 22 0 29 -5 29 -20z m-30 -400 c0 -25 4 -30 25 -30 18 0 25 -5 25
-20 0 -33 -60 -27 -95 10 -28 29 -28 30 -10 50 28 31 55 26 55 -10z"/>
<path d="M8008 2748 c-3 -30 -6 -33 -40 -36 l-38 -3 0 -72 c-1 -71 -1 -71 -14
-36 -25 71 -70 113 -142 135 l-44 13 0 -179 c0 -153 -2 -180 -15 -180 -10 0
-15 -10 -15 -29 0 -27 -3 -30 -37 -33 l-38 -3 -3 -137 -3 -138 41 0 c33 0 40
-3 40 -20 0 -18 -7 -20 -55 -20 l-55 0 0 -35 c0 -34 -1 -35 -40 -35 -30 0 -40
-4 -40 -16 0 -12 -9 -9 -34 14 -19 16 -40 32 -48 36 -10 5 -10 7 0 12 32 15
76 62 93 99 56 123 -14 255 -153 289 l-28 6 0 -590 0 -590 29 0 c16 0 50 14
77 33 87 58 117 160 75 253 -19 42 -84 104 -111 104 -8 1 1 9 20 19 19 11 43
27 52 38 13 14 27 17 62 15 43 -4 46 -6 46 -33 0 -26 4 -29 30 -29 25 0 30 -4
30 -25 0 -22 -4 -25 -40 -25 l-40 0 0 -135 0 -135 40 0 c39 0 40 -1 40 -35 0
-34 1 -35 40 -35 l40 0 0 -200 0 -200 28 6 c42 10 88 33 108 55 27 30 44 24
44 -16 l0 -35 65 0 65 0 0 205 0 205 -65 0 -65 0 0 -30 c0 -26 -4 -30 -26 -30
-14 0 -37 9 -51 20 -14 11 -32 20 -39 20 -11 0 -14 37 -14 199 l0 199 30 12
c63 26 120 116 120 190 0 35 -43 123 -71 146 -24 19 -24 19 -21 218 2 199 3
199 28 223 14 12 34 42 44 65 l20 43 0 -37 c0 -38 0 -38 40 -38 38 0 40 -2 40
-30 0 -29 1 -30 50 -30 l50 0 0 -180 0 -180 -35 0 c-33 0 -35 -2 -35 -35 0
-34 -1 -35 -40 -35 l-40 0 0 -140 0 -140 40 0 c38 0 40 -2 40 -30 0 -28 3 -30
35 -30 19 0 35 -4 35 -10 0 -30 100 2 141 46 16 17 33 24 61 24 36 0 38 -2 38
-30 l0 -30 65 0 65 0 0 190 0 190 50 0 50 0 0 205 0 205 -65 0 -65 0 0 -30 c0
-28 -2 -30 -40 -30 l-40 0 0 -140 0 -140 40 0 c33 0 40 -3 40 -20 0 -17 -7
-20 -50 -20 l-50 0 0 -35 c0 -34 -1 -35 -40 -35 -31 0 -40 -4 -40 -17 0 -14
-5 -12 -27 9 -16 14 -39 31 -52 38 l-24 12 39 22 c21 11 52 41 69 64 27 39 30
52 30 117 0 65 -3 78 -30 115 -30 42 -56 62 -107 80 l-28 10 0 195 0 195 -64
0 -65 0 -3 -32z m-281 -1040 c-1 -51 -3 -10 -3 92 0 102 2 143 3 93 2 -51 2
-135 0 -185z"/>
<path d="M6356 2733 c12 -52 37 -94 71 -121 28 -23 33 -33 33 -69 0 -40 -2
-42 -32 -45 -33 -3 -33 -3 -36 -65 l-3 -63 175 0 174 0 27 -45 c49 -85 156
-126 247 -96 61 20 117 87 133 159 l7 32 -176 0 -176 0 0 40 c0 38 -2 40 -30
40 -28 0 -30 2 -30 40 l0 40 -45 0 -45 0 39 35 c41 38 71 89 71 124 0 21 -3
21 -205 21 l-205 0 6 -27z"/>
<path d="M4590 2526 l0 -208 33 7 c112 25 182 128 164 242 -12 72 -88 148
-161 160 l-36 6 0 -207z"/>
<path d="M800 2540 c0 -38 -2 -40 -30 -40 -30 0 -30 -1 -30 -55 l0 -55 -141 0
-141 0 7 -32 c14 -65 56 -118 120 -151 l30 -16 -37 -1 c-38 0 -38 -1 -38 -40
0 -38 -2 -40 -30 -40 -28 0 -30 -2 -30 -39 0 -22 -5 -41 -11 -43 -19 -6 9 -85
44 -125 38 -43 98 -72 148 -73 69 0 148 41 174 89 l12 24 13 -37 c6 -20 23
-50 37 -66 l25 -30 -176 0 -176 0 0 -39 c0 -37 -2 -40 -32 -43 -32 -3 -33 -5
-36 -50 -3 -41 -6 -48 -23 -48 -18 0 -20 -4 -14 -32 39 -187 298 -218 385 -47
23 44 42 49 191 49 l109 0 0 65 0 65 -30 0 c-44 0 -41 35 4 50 41 13 102 73
117 115 l12 31 41 -44 c30 -32 55 -48 91 -57 l50 -14 -77 0 -78 -1 0 -39 c0
-37 -2 -40 -32 -43 -33 -3 -33 -3 -36 -65 l-3 -63 211 0 211 0 -3 63 c-3 62
-3 62 -35 65 -31 3 -33 6 -33 43 l0 39 -57 1 -58 0 48 13 c56 15 121 73 139
123 7 18 18 33 25 33 9 0 13 18 13 64 l0 65 -32 3 c-30 3 -33 6 -36 41 l-3 37
-52 0 -52 1 30 16 c65 34 110 91 116 148 l4 30 -205 0 -205 0 4 -30 c6 -57 51
-114 116 -148 l30 -16 -32 -1 c-32 0 -33 -2 -33 -40 0 -38 -2 -40 -30 -40 -29
0 -30 -2 -30 -44 0 -29 -5 -46 -14 -49 -9 -4 -12 -14 -9 -26 5 -21 3 -21 -188
-20 -107 1 -186 3 -176 6 14 4 17 16 17 69 l0 64 -35 0 c-34 0 -35 1 -35 40
l0 40 -52 1 c-49 1 -51 2 -28 12 51 24 86 56 108 100 12 24 22 49 22 56 0 8
42 11 140 11 l140 0 0 65 0 65 -35 0 c-34 0 -35 1 -35 40 l0 40 -140 0 -140 0
0 -40z"/>
<path d="M3710 2540 c0 -39 -1 -40 -35 -40 l-35 0 0 -65 0 -65 174 0 174 0 6
-36 c8 -39 64 -107 108 -130 24 -12 28 -21 28 -54 0 -38 -2 -40 -30 -40 l-30
0 0 -65 0 -65 205 0 205 0 0 64 0 65 -32 3 c-30 3 -33 6 -36 41 l-3 37 -77 1
c-42 0 -70 3 -62 6 52 20 109 91 124 156 l6 27 -175 0 -175 0 0 60 0 60 -30 0
c-28 0 -30 2 -30 40 l0 40 -140 0 -140 0 0 -40z"/>
<path d="M3219 2358 c17 -75 72 -138 138 -158 24 -7 20 -8 -24 -9 l-53 -1 0
-40 c0 -38 -2 -40 -29 -40 -29 0 -29 -1 -33 -60 -1 -33 0 -73 3 -90 10 -45 49
-98 94 -125 l40 -25 -72 0 -73 0 0 -40 c0 -39 -1 -40 -35 -40 l-35 0 0 -65 0
-65 205 0 205 0 0 65 0 65 -30 0 c-29 0 -30 2 -30 45 0 31 4 45 13 45 19 0 83
64 104 103 9 18 18 65 21 110 l5 77 -37 0 c-35 0 -36 1 -36 40 l0 40 -52 1
c-45 1 -49 2 -25 9 66 20 121 83 138 158 l7 32 -208 0 -208 0 7 -32z"/>
<path d="M5970 2370 c0 -59 67 -141 136 -165 38 -14 37 -14 -53 -15 l-93 0 0
-40 c0 -38 -2 -40 -30 -40 l-30 0 0 -65 0 -65 33 0 c31 0 34 -3 45 -47 8 -29
26 -60 50 -84 34 -33 37 -42 34 -78 -4 -38 -6 -41 -33 -41 l-29 0 0 -65 0 -65
174 0 174 0 7 -32 c12 -55 53 -116 95 -140 34 -19 40 -28 40 -55 0 -31 -2 -33
-35 -33 l-35 0 0 -65 0 -65 159 0 158 0 25 -47 c46 -90 155 -135 251 -104 43
15 103 74 119 118 10 27 17 33 40 33 28 0 28 0 28 65 l0 65 -35 0 c-34 0 -35
1 -35 40 l0 40 -140 0 -140 0 0 -40 0 -40 -40 0 -40 0 0 40 0 40 -56 0 -56 0
32 26 c17 15 40 45 52 67 l20 41 13 -25 c26 -48 105 -89 174 -89 50 1 110 30
148 73 35 40 63 119 44 125 -6 2 -11 24 -11 48 0 42 -1 44 -29 44 -27 0 -30 3
-33 37 -3 33 -7 39 -33 44 -16 4 -22 7 -12 8 27 2 101 82 113 121 7 25 16 36
32 38 20 3 22 9 22 68 l0 64 -35 0 c-34 0 -35 1 -35 40 l0 40 -140 0 -140 0 0
-40 c0 -38 -2 -40 -30 -40 -30 0 -30 -1 -30 -55 0 -48 -2 -55 -20 -55 -56 0
15 -134 95 -178 17 -10 14 -11 -22 -12 l-43 0 0 -40 c0 -39 -1 -40 -35 -40
l-35 0 0 -65 0 -65 -155 0 -155 0 0 65 0 65 -35 0 c-34 0 -35 1 -35 40 0 39
-1 40 -35 40 l-35 0 40 36 c27 24 45 52 54 83 16 55 14 61 -25 61 -29 0 -29 0
-29 59 l0 60 -32 3 c-30 3 -33 6 -36 41 -3 30 -7 37 -25 38 -15 1 -11 4 13 11
70 20 125 81 144 161 l6 27 -205 0 c-199 0 -205 -1 -205 -20z"/>
<path d="M1840 1611 l0 -761 28 6 c113 27 185 128 168 234 -7 45 -48 118 -72
127 -13 5 -11 10 7 29 16 17 33 24 61 24 36 0 38 -2 38 -30 0 -28 2 -30 40
-30 33 0 40 -3 40 -20 0 -17 -7 -20 -40 -20 l-40 0 0 -140 0 -140 40 0 c39 0
40 -1 40 -35 l0 -35 65 0 65 0 0 205 0 205 -35 0 -35 0 0 195 c0 188 -1 195
-20 195 -19 0 -20 8 -22 193 l-3 192 -65 0 -65 0 -3 -32 c-3 -30 -6 -33 -35
-33 -18 0 -42 9 -55 18 l-24 18 36 25 c41 27 86 108 86 153 0 102 -70 190
-167 211 l-33 7 0 -761z m190 19 c0 -23 4 -30 20 -30 15 0 20 -7 20 -25 0 -22
-4 -25 -35 -25 -25 0 -35 -4 -35 -16 0 -12 -9 -8 -35 15 -20 17 -40 31 -45 31
-20 0 -8 16 30 40 22 13 40 28 40 32 0 4 9 8 20 8 16 0 20 -7 20 -30z"/>
<path d="M4980 1825 c0 -176 -2 -205 -15 -205 -13 0 -15 28 -15 195 l0 195
-65 0 -65 0 0 -35 c0 -35 0 -35 -44 -35 -27 0 -48 6 -57 16 -16 20 -56 40 -96
49 l-33 7 0 -208 0 -207 36 6 c20 4 54 18 75 32 25 16 52 25 79 25 38 0 40 -2
40 -30 0 -28 2 -30 40 -30 36 0 40 -2 40 -25 0 -22 -4 -25 -40 -25 l-40 0 0
-140 0 -140 40 0 c38 0 40 -2 40 -30 0 -28 2 -30 40 -30 l40 0 0 -195 c0 -179
1 -195 18 -195 25 1 95 34 111 53 9 11 29 17 57 17 44 0 44 0 44 -35 l0 -35
65 0 65 0 0 205 0 205 -65 0 -65 0 0 -29 c0 -28 -3 -30 -42 -33 -34 -2 -53 3
-90 27 l-47 30 0 200 0 200 38 18 c52 24 61 22 61 -13 l0 -30 70 0 70 0 -2
203 -3 202 -65 0 c-60 0 -64 -2 -70 -25 -4 -17 -8 -21 -14 -12 -9 15 -71 47
-108 56 l-28 6 0 -205z"/>
<path d="M3990 1951 c0 -34 20 -75 53 -108 l31 -33 -27 0 c-25 0 -27 -3 -27
-40 0 -39 -1 -40 -35 -40 l-35 0 0 -50 0 -50 -176 0 -176 0 7 -32 c11 -52 50
-105 101 -134 86 -50 196 -29 262 51 l29 36 12 -29 c13 -31 51 -71 86 -90 19
-11 18 -11 -7 -12 -26 0 -28 -3 -28 -40 0 -37 -2 -40 -29 -40 -28 0 -28 0 -34
-77 -7 -95 13 -146 76 -193 22 -16 36 -30 29 -30 -7 0 -12 -16 -12 -40 0 -39
-1 -40 -35 -40 l-35 0 0 -70 0 -70 205 0 205 0 0 70 0 70 -29 0 c-27 0 -30 3
-33 38 -3 37 -4 37 -53 42 -40 4 -46 7 -28 13 33 12 92 85 99 124 3 18 10 33
15 33 5 0 9 29 9 65 l0 65 -35 0 c-34 0 -35 1 -35 40 0 40 0 40 -37 40 l-38 0
30 19 c47 29 75 65 90 116 14 45 14 47 -5 52 -17 5 -20 14 -20 64 0 59 0 59
-30 59 -28 0 -30 2 -30 38 0 26 6 41 19 49 23 15 66 86 75 126 l6 27 -205 0
c-196 0 -205 -1 -205 -19z"/>
<path d="M4590 1384 l0 -207 37 6 c53 9 112 54 140 106 62 119 -10 267 -144
296 l-33 7 0 -208z"/>
<path d="M620 1380 c0 -39 -1 -40 -35 -40 l-35 0 0 -65 0 -65 150 0 c136 0
150 -2 150 -17 1 -39 40 -103 81 -132 40 -30 41 -31 16 -31 -25 0 -27 -3 -27
-40 0 -38 -2 -40 -30 -40 l-30 0 0 -65 0 -65 360 0 360 0 0 65 0 65 -30 0
c-28 0 -30 2 -30 40 l0 40 -140 0 -140 0 0 -35 c0 -28 -4 -35 -20 -35 -16 0
-20 7 -20 35 0 33 -2 35 -31 35 l-32 0 29 22 c38 30 60 57 75 91 l12 27 22
-30 c106 -144 326 -98 365 76 l8 34 -209 0 c-181 0 -208 -2 -203 -15 5 -13
-14 -15 -135 -15 l-141 0 0 60 0 60 -30 0 c-28 0 -30 2 -30 40 l0 40 -140 0
-140 0 0 -40z"/>
<path d="M3620 1380 c0 -39 -1 -40 -35 -40 l-35 0 0 -65 0 -65 205 0 205 0 0
65 0 65 -30 0 c-28 0 -30 2 -30 40 l0 40 -140 0 -140 0 0 -40z"/>
<path d="M8480 1200 c0 -28 -3 -30 -35 -30 l-35 0 0 -140 0 -140 34 0 c32 0
35 -3 38 -32 l3 -33 65 0 65 0 3 203 2 202 -70 0 -70 0 0 -30z"/>
<path d="M8110 995 l0 -207 32 6 c55 11 102 41 133 85 27 38 30 51 30 116 0
65 -3 78 -30 116 -31 44 -78 74 -133 85 l-32 7 0 -208z"/>
<path d="M6830 1001 c0 -38 -2 -40 -32 -43 -31 -3 -33 -6 -36 -45 l-3 -43
-205 0 c-129 0 -204 -4 -204 -10 0 -6 -70 -10 -190 -10 -186 0 -190 0 -190
-21 0 -62 82 -151 154 -168 l41 -9 -57 -1 -58 -1 0 -40 c0 -39 -1 -40 -35 -40
l-35 0 0 -65 0 -65 350 0 350 0 0 65 0 65 -35 0 c-34 0 -35 1 -35 40 l0 40
-212 1 c-202 0 -211 1 -166 15 48 15 112 69 123 105 6 16 13 12 54 -30 58 -60
127 -81 199 -62 49 14 112 66 134 112 l15 31 207 -2 206 -1 0 71 0 70 -29 0
c-27 0 -30 3 -33 38 l-3 37 -137 3 -138 3 0 -40z"/>
<path d="M3603 850 c5 -20 0 -20 -193 -20 l-198 0 7 -32 c12 -51 38 -94 73
-122 l33 -26 -67 0 -68 0 0 -40 c0 -39 -1 -40 -35 -40 l-35 0 0 -65 0 -65 205
0 205 0 0 65 0 65 -30 0 c-28 0 -30 3 -30 35 0 23 5 35 13 35 27 0 97 60 118
102 l21 42 20 -27 c11 -15 40 -39 65 -54 104 -60 240 -13 288 99 29 71 38 68
-191 68 -201 0 -206 0 -201 -20z"/>
<path d="M3750 610 c0 -38 -2 -40 -30 -40 l-30 0 0 -65 0 -65 205 0 205 0 0
65 0 65 -35 0 c-34 0 -35 1 -35 40 l0 40 -140 0 -140 0 0 -40z"/>
</g>
</svg>
